<?xml version="1.0" standalone="no"?>
<!DOCTYPE svg PUBLIC "-//W3C//DTD SVG 20010904//EN"
 "http://www.w3.org/TR/2001/REC-SVG-20010904/DTD/svg10.dtd">
<svg version="1.0" xmlns="http://www.w3.org/2000/svg"
 width="400.000000pt" height="400.000000pt" viewBox="0 0 400.000000 400.000000"
 preserveAspectRatio="xMidYMid meet">

<g transform="translate(0.000000,400.000000) scale(0.100000,-0.100000)"
fill="#000000" stroke="none">
<path d="M2770 1954 c0 -18 170 -354 179 -354 6 0 11 2 11 3 0 16 -172 357
-180 357 -5 0 -10 -3 -10 -6z"/>
<path d="M2885 1789 c46 -94 86 -176 88 -182 2 -7 8 -9 12 -4 10 9 -160 357
-174 357 -6 0 28 -77 74 -171z"/>
<path d="M2846 1936 c12 -39 165 -338 170 -333 3 3 -31 77 -75 166 -45 88 -81
166 -81 173 1 7 18 -20 39 -61 28 -54 39 -69 44 -57 5 11 3 15 -5 10 -8 -5 -9
-2 -5 10 5 11 3 15 -5 10 -8 -5 -9 -2 -5 10 5 11 3 15 -5 10 -8 -5 -9 -2 -5
10 5 11 3 15 -5 10 -8 -5 -9 -2 -5 10 5 11 3 15 -5 10 -8 -5 -9 -2 -5 10 5 11
3 15 -5 10 -7 -5 -9 -2 -6 7 4 11 -1 15 -18 15 -20 0 -23 -4 -18 -20z"/>
<path d="M3192 1943 c-42 -20 -77 -66 -91 -118 -25 -95 41 -202 137 -221 l32
-6 0 181 0 181 -22 0 c-13 0 -38 -8 -56 -17z"/>
<path d="M3280 1890 c0 -56 3 -70 15 -70 12 0 15 14 15 70 0 56 -3 70 -15 70
-12 0 -15 -14 -15 -70z"/>
<path d="M3320 1890 c0 -40 4 -70 10 -70 6 0 10 30 10 70 0 40 -4 70 -10 70
-6 0 -10 -30 -10 -70z"/>
<path d="M3350 1890 c0 -40 4 -70 10 -70 6 0 10 30 10 70 0 40 -4 70 -10 70
-6 0 -10 -30 -10 -70z"/>
<path d="M3383 1890 c0 -41 2 -58 4 -37 2 20 2 54 0 75 -2 20 -4 3 -4 -38z"/>
<path d="M3403 1890 c0 -41 2 -58 4 -37 2 20 2 54 0 75 -2 20 -4 3 -4 -38z"/>
<path d="M3434 1845 c0 -66 1 -92 3 -57 2 34 2 88 0 120 -2 31 -3 3 -3 -63z"/>
<path d="M3454 1845 c0 -66 1 -92 3 -57 2 34 2 88 0 120 -2 31 -3 3 -3 -63z"/>
<path d="M3470 1845 c0 -70 4 -115 10 -115 6 0 10 45 10 115 0 70 -4 115 -10
115 -6 0 -10 -45 -10 -115z"/>
<path d="M3500 1845 c0 -70 4 -115 10 -115 6 0 10 45 10 115 0 70 -4 115 -10
115 -6 0 -10 -45 -10 -115z"/>
<path d="M3530 1845 c0 -96 3 -115 15 -115 12 0 15 19 15 115 0 96 -3 115 -15
115 -12 0 -15 -19 -15 -115z"/>
<path d="M3570 1905 l0 -55 65 0 65 0 0 55 0 55 -65 0 -65 0 0 -55z"/>
<path d="M2746 1939 c-15 -44 -96 -324 -96 -331 0 -4 20 -8 44 -8 39 0 45 3
51 28 l7 27 14 -27 c14 -27 18 -28 89 -28 l75 0 -86 173 c-47 94 -88 174 -90
176 -2 2 -6 -2 -8 -10z"/>
<path d="M3571 1720 l0 -120 65 0 64 0 0 120 0 120 -64 0 -65 0 0 -120z"/>
<path d="M3350 1695 c0 -57 4 -95 10 -95 6 0 10 38 10 95 0 57 -4 95 -10 95
-6 0 -10 -38 -10 -95z"/>
<path d="M3384 1695 c0 -55 1 -76 3 -47 2 29 2 74 0 100 -2 26 -3 2 -3 -53z"/>
<path d="M3404 1695 c0 -55 1 -76 3 -47 2 29 2 74 0 100 -2 26 -3 2 -3 -53z"/>
<path d="M2971 1735 c0 -5 15 -39 33 -74 26 -51 34 -60 40 -45 4 10 4 15 -1
11 -4 -4 -22 20 -40 55 -17 35 -32 59 -32 53z"/>
<path d="M3280 1670 c0 -56 3 -70 15 -70 12 0 15 14 15 70 0 56 -3 70 -15 70
-12 0 -15 -14 -15 -70z"/>
<path d="M3320 1670 c0 -40 4 -70 10 -70 6 0 10 30 10 70 0 40 -4 70 -10 70
-6 0 -10 -30 -10 -70z"/>
<path d="M3433 1655 c0 -33 2 -45 4 -27 2 18 2 45 0 60 -2 15 -4 0 -4 -33z"/>
<path d="M3453 1655 c0 -33 2 -45 4 -27 2 18 2 45 0 60 -2 15 -4 0 -4 -33z"/>
<path d="M3470 1655 c0 -30 5 -55 10 -55 6 0 10 25 10 55 0 30 -4 55 -10 55
-5 0 -10 -25 -10 -55z"/>
<path d="M3500 1655 c0 -30 5 -55 10 -55 6 0 10 25 10 55 0 30 -4 55 -10 55
-5 0 -10 -25 -10 -55z"/>
<path d="M3530 1655 c0 -42 3 -55 15 -55 12 0 15 13 15 55 0 42 -3 55 -15 55
-12 0 -15 -13 -15 -55z"/>
</g>
</svg>
